<svg width="178" height="27" viewBox="0 0 178 27" fill="none" xmlns="http://www.w3.org/2000/svg">
<path d="M24.7515 15.8813C24.7515 18.6995 23.5581 21.1151 21.1713 23.1282C18.7844 25.1124 16.0237 26.1045 12.8892 26.1045C9.23696 26.1045 6.20309 24.8824 3.78748 22.438C1.37187 19.9649 0.164062 16.9166 0.164062 13.2932C0.164062 9.35345 1.29997 6.17575 3.5718 3.76014C5.84365 1.34452 8.94943 0.136719 12.8892 0.136719C16.8002 0.136719 19.9491 1.44515 22.3359 4.06209C22.7961 4.55094 23.0261 5.08299 23.0261 5.65812C23.0261 6.31951 22.7673 6.8947 22.2497 7.38355C21.7608 7.87241 21.1856 8.11686 20.5242 8.11686C19.8628 8.11686 19.2876 7.84369 18.7988 7.29728C17.3609 5.74439 15.391 4.96794 12.8892 4.96794C10.301 4.96794 8.33111 5.71561 6.97954 7.21101C5.65668 8.67763 4.99529 10.705 4.99529 13.2932C4.99529 15.6225 5.7286 17.5348 7.19522 19.0302C8.69062 20.5256 10.5886 21.2733 12.8892 21.2733C14.5571 21.2733 16.0381 20.842 17.3322 19.9792C18.4825 19.2028 19.2589 18.2538 19.6615 17.1323H14.2695C13.5218 17.1323 12.9323 16.9022 12.5009 16.4421C12.0696 15.9532 11.8539 15.3781 11.8539 14.7167C11.8539 14.0553 12.0696 13.4945 12.5009 13.0344C12.9323 12.5455 13.5218 12.301 14.2695 12.301H24.7515V15.8813ZM49.1456 23.5164C49.1456 24.2066 48.8868 24.7817 48.3691 25.2418C47.8803 25.6732 47.3051 25.8889 46.6437 25.8889C45.5797 25.8889 44.8463 25.3424 44.4438 24.2497L42.934 19.9361H32.6245L31.0716 24.2497C30.669 25.3424 29.9357 25.8889 28.8717 25.8889C28.2103 25.8889 27.6208 25.6732 27.1031 25.2418C26.6143 24.7817 26.3698 24.2066 26.3698 23.5164C26.3698 23.2288 26.4273 22.9268 26.5424 22.6105L33.4872 3.15623C34.1486 1.34452 35.5865 0.43867 37.8008 0.43867C40.0439 0.43867 41.4817 1.34452 42.1144 3.15623L49.0162 22.6105C49.1024 22.9268 49.1456 23.2288 49.1456 23.5164ZM41.2086 15.1912L39.3106 9.97171C39.0518 9.28153 38.793 8.59136 38.5341 7.90118C38.2753 7.03846 38.0165 5.96007 37.7577 4.66599C37.3551 6.4202 36.8231 8.21749 36.1617 10.058L34.3068 15.1912H41.2086ZM71.671 17.7793C71.671 19.476 71.0671 21.072 69.8593 22.5674C68.6515 24.034 67.228 25.0261 65.5889 25.5438C64.3521 25.9176 62.9434 26.1045 61.3615 26.1045C58.7158 26.1045 56.1276 25.6013 53.597 24.5948C52.5905 24.1922 52.0873 23.4732 52.0873 22.438C52.0873 21.7766 52.3029 21.2014 52.7343 20.7125C53.1944 20.1949 53.7551 19.9361 54.4166 19.9361C54.7329 19.9361 55.0636 19.9936 55.4087 20.1086C57.3354 20.8851 59.3197 21.2733 61.3615 21.2733C62.512 21.2733 63.4752 21.1439 64.2516 20.8851C64.8845 20.6838 65.4163 20.3243 65.8477 19.8067C66.308 19.2891 66.5378 18.7571 66.5378 18.2107C66.5378 17.7218 66.3511 17.276 65.9771 16.8735C65.1433 15.867 63.4894 15.1912 61.0165 14.8461C54.8335 13.9833 51.7422 11.539 51.7422 7.51296C51.7422 5.06857 52.9068 3.22815 55.2362 1.99156C57.1054 1.04257 59.3772 0.568078 62.0517 0.568078C64.7261 0.568078 66.9261 0.985079 68.6515 1.81902C69.5715 2.27916 70.0319 2.98369 70.0319 3.93268C70.0319 4.56536 69.802 5.14048 69.3417 5.65812C68.9103 6.17575 68.3637 6.43456 67.7025 6.43456C67.3285 6.43456 66.9402 6.34829 66.5378 6.17575C65.5026 5.65812 63.9787 5.3993 61.9654 5.3993C58.3707 5.3993 56.5734 6.10383 56.5734 7.51296C56.5734 8.49073 57.9969 9.32467 60.8439 10.0148C62.7419 10.4462 64.6399 10.8776 66.5378 11.3089C67.9755 11.8553 69.1118 12.5742 69.9456 13.4657C71.0961 14.731 71.671 16.1689 71.671 17.7793ZM96.1963 2.50919C96.1963 2.79679 96.1531 3.08432 96.0668 3.37191L89.0788 23.3007C88.446 25.1412 87.0083 26.0614 84.7652 26.0614C82.5222 26.0614 81.0839 25.1412 80.4517 23.3007L73.593 3.37191C73.4778 3.08432 73.4205 2.79679 73.4205 2.50919C73.4205 1.81902 73.6793 1.25825 74.1969 0.826893C74.7146 0.366756 75.2895 0.136719 75.9224 0.136719C77.015 0.136719 77.7483 0.683128 78.1223 1.77588L82.6516 14.5872C83.6868 17.5205 84.4054 19.9217 84.8084 21.7909C85.4406 19.3466 86.1598 16.9885 86.9652 14.7167L91.4944 1.77588C91.8679 0.683128 92.6012 0.136719 93.6944 0.136719C94.3556 0.136719 94.9305 0.366756 95.4198 0.826893C95.9374 1.25825 96.1963 1.81902 96.1963 2.50919ZM103.801 23.4301C103.801 24.2066 103.556 24.8105 103.067 25.2418C102.579 25.6444 102.018 25.8457 101.385 25.8457C100.724 25.8457 100.148 25.6444 99.6595 25.2418C99.1991 24.8105 98.9693 24.2066 98.9693 23.4301V3.15623C98.9693 2.40856 99.1991 1.81902 99.6595 1.38766C100.148 0.956301 100.724 0.740622 101.385 0.740622C102.018 0.740622 102.579 0.956301 103.067 1.38766C103.556 1.81902 103.801 2.40856 103.801 3.15623V23.4301ZM127.318 17.7793C127.318 19.476 126.714 21.072 125.506 22.5674C124.299 24.034 122.875 25.0261 121.236 25.5438C119.999 25.9176 118.59 26.1045 117.009 26.1045C114.363 26.1045 111.774 25.6013 109.244 24.5948C108.237 24.1922 107.735 23.4732 107.735 22.438C107.735 21.7766 107.95 21.2014 108.382 20.7125C108.841 20.1949 109.402 19.9361 110.064 19.9361C110.38 19.9361 110.711 19.9936 111.056 20.1086C112.982 20.8851 114.967 21.2733 117.009 21.2733C118.159 21.2733 119.122 21.1439 119.899 20.8851C120.531 20.6838 121.063 20.3243 121.495 19.8067C121.955 19.2891 122.185 18.7571 122.185 18.2107C122.185 17.7218 121.998 17.276 121.624 16.8735C120.79 15.867 119.137 15.1912 116.664 14.8461C110.48 13.9833 107.389 11.539 107.389 7.51296C107.389 5.06857 108.554 3.22815 110.883 1.99156C112.752 1.04257 115.024 0.568078 117.699 0.568078C120.373 0.568078 122.573 0.985079 124.299 1.81902C125.219 2.27916 125.679 2.98369 125.679 3.93268C125.679 4.56536 125.449 5.14048 124.989 5.65812C124.558 6.17575 124.011 6.43456 123.35 6.43456C122.976 6.43456 122.587 6.34829 122.185 6.17575C121.15 5.65812 119.625 5.3993 117.613 5.3993C114.018 5.3993 112.221 6.10383 112.221 7.51296C112.221 8.49073 113.644 9.32467 116.491 10.0148C118.389 10.4462 120.287 10.8776 122.185 11.3089C123.623 11.8553 124.758 12.5742 125.593 13.4657C126.743 14.731 127.318 16.1689 127.318 17.7793ZM153.827 13.2932C153.827 17.2329 152.735 20.3531 150.549 22.6537C148.364 24.9542 145.329 26.1045 141.447 26.1045C137.623 26.1045 134.603 24.9399 132.389 22.6105C130.174 20.2524 129.067 17.1466 129.067 13.2932C129.067 9.38216 130.16 6.27638 132.345 3.97582C134.531 1.64648 137.565 0.481806 141.447 0.481806C145.301 0.481806 148.32 1.64648 150.506 3.97582C152.72 6.30515 153.827 9.41094 153.827 13.2932ZM148.996 13.2932C148.996 7.9731 146.48 5.31303 141.447 5.31303C136.415 5.31303 133.898 7.9731 133.898 13.2932C133.898 15.8238 134.531 17.7937 135.796 19.2028C137.09 20.5831 138.974 21.2733 141.447 21.2733C146.48 21.2733 148.996 18.6132 148.996 13.2932ZM177.935 8.93644C177.935 10.9207 177.403 12.6605 176.339 14.1559C175.304 15.6513 173.852 16.629 171.982 17.0891L176.469 21.7909C176.929 22.2798 177.159 22.8262 177.159 23.4301C177.159 24.0915 176.9 24.6667 176.382 25.1555C175.894 25.6444 175.319 25.8889 174.657 25.8889C174.025 25.8889 173.464 25.63 172.975 25.1124L161.759 13.4226V23.4301C161.759 24.2066 161.515 24.8105 161.026 25.2418C160.566 25.6444 160.005 25.8457 159.344 25.8457C158.711 25.8457 158.151 25.6444 157.661 25.2418C157.173 24.8105 156.928 24.2066 156.928 23.4301V0.740622H169.912C172.241 0.740622 174.154 1.54585 175.649 3.15623C177.173 4.7379 177.935 6.6646 177.935 8.93644ZM173.104 8.93644C173.104 7.95868 172.716 7.15351 171.939 6.52083C171.192 5.88815 170.315 5.57184 169.308 5.57184H161.759V12.8187H168.79C170.286 12.8187 171.35 12.5742 171.982 12.0854C172.73 11.4815 173.104 10.4318 173.104 8.93644Z" fill="#7B58A1"/>
</svg>
